<svg width="72" height="77" fill="none" xmlns="http://www.w3.org/2000/svg"><circle cx="57" cy="15" r="15" fill="#fff"/><path d="M19.857 47.896c0 .337-.935.613-2.806.828-1.87.184-3.741.276-5.612.276-1.87 0-3.082-.077-3.634-.23-.521-.184-.782-.475-.782-.874V28.024H2.331c-.521 0-.782-1.12-.782-3.358 0-2.239.26-4.263.782-6.072.154-.583 1.779-1.12 4.876-1.61 3.098-.49 5.474-.736 7.13-.736 1.656 0 2.76.061 3.312.184s.966.276 1.242.46c.276.153.49.337.644.552.215.337.322.66.322.966v29.486Zm17.9-18.998c.276-.245 1.012-.567 2.208-.966 1.196-.399 2.545-.598 4.048-.598 1.533 0 2.821.23 3.864.69 1.073.43 1.901.981 2.484 1.656.613.675 1.089 1.518 1.426 2.53.552 1.656.828 3.343.828 5.06 0 1.717-.077 3.02-.23 3.91-.123.859-.46 1.825-1.012 2.898a7.787 7.787 0 0 1-2.162 2.714c-.89.736-2.177 1.365-3.864 1.886-1.656.49-3.603.736-5.842.736-4.815 0-8.449-1.319-10.902-3.956-2.453-2.668-3.68-6.961-3.68-12.88 0-5.95 1.15-10.227 3.45-12.834 2.3-2.637 5.796-3.956 10.488-3.956 3.22 0 6.01.245 8.372.736 2.392.46 3.588 1.012 3.588 1.656 0 .797-.307 2.193-.92 4.186-.583 1.993-1.12 2.99-1.61 2.99-.153 0-.613-.077-1.38-.23-2.085-.43-3.987-.644-5.704-.644-1.717 0-2.821.43-3.312 1.288-.49.828-.736 2.055-.736 3.68.123-.153.322-.337.598-.552Zm1.012 4.14c-.89 0-1.334 1.656-1.334 4.968 0 3.281.445 4.922 1.334 4.922.95 0 1.426-1.64 1.426-4.922 0-3.312-.475-4.968-1.426-4.968Z" fill="#D41443"/><path d="M23.24 73.168c-.663 0-1.26-.15-1.792-.448a3.403 3.403 0 0 1-1.246-1.274c-.299-.55-.448-1.19-.448-1.918s.15-1.363.448-1.904c.308-.55.723-.975 1.246-1.274a3.511 3.511 0 0 1 1.792-.462c.821 0 1.512.215 2.072.644.57.43.929 1.003 1.078 1.722h-1.204a1.518 1.518 0 0 0-.686-.994c-.364-.243-.789-.364-1.274-.364-.392 0-.76.098-1.106.294-.345.196-.625.49-.84.882-.215.392-.322.877-.322 1.456s.107 1.064.322 1.456c.215.392.495.69.84.896.345.196.714.294 1.106.294.485 0 .91-.117 1.274-.35.364-.243.593-.583.686-1.022h1.204a2.78 2.78 0 0 1-1.064 1.708c-.57.439-1.265.658-2.086.658Zm7.102 0c-.578 0-1.059-.098-1.442-.294-.382-.196-.667-.457-.854-.784a2.108 2.108 0 0 1-.28-1.064c0-.71.271-1.255.812-1.638.542-.383 1.28-.574 2.212-.574h1.876v-.084c0-.607-.158-1.064-.476-1.372-.317-.317-.742-.476-1.274-.476-.457 0-.854.117-1.19.35-.326.224-.532.555-.616.994h-1.204c.047-.504.215-.929.504-1.274a2.85 2.85 0 0 1 1.106-.784c.44-.187.906-.28 1.4-.28.971 0 1.7.261 2.184.784.495.513.742 1.2.742 2.058V73h-1.05l-.07-1.246a2.788 2.788 0 0 1-.868 1.008c-.373.27-.877.406-1.512.406Zm.182-.994c.448 0 .831-.117 1.148-.35.327-.233.574-.537.742-.91.168-.373.252-.765.252-1.176v-.014h-1.778c-.69 0-1.18.121-1.47.364a1.1 1.1 0 0 0-.42.882c0 .364.131.658.392.882.271.215.65.322 1.134.322Zm5.46.826v-5.95h-1.05v-.994h1.05v-1.204c0-.672.169-1.162.505-1.47.336-.308.826-.462 1.47-.462h.7v1.008h-.518c-.355 0-.607.075-.756.224-.15.14-.224.383-.224.728v1.176h1.708v.994H37.16V73h-1.176Zm7.133.168c-.662 0-1.25-.15-1.764-.448a3.333 3.333 0 0 1-1.218-1.274c-.289-.541-.434-1.18-.434-1.918 0-.728.145-1.363.434-1.904.29-.55.691-.975 1.204-1.274.523-.308 1.125-.462 1.806-.462.672 0 1.251.154 1.736.462.495.299.873.695 1.134 1.19a3.366 3.366 0 0 1 .378 1.904v.35h-5.53c.028.532.15.975.364 1.33.224.345.5.607.826.784.336.177.691.266 1.064.266.486 0 .892-.112 1.218-.336.327-.224.565-.527.714-.91h1.162a3.156 3.156 0 0 1-1.078 1.61c-.522.42-1.194.63-2.016.63Zm0-6.286c-.56 0-1.059.173-1.498.518-.429.336-.676.83-.742 1.484h4.368c-.028-.625-.242-1.115-.644-1.47-.401-.355-.896-.532-1.484-.532Zm7.509 6.286c-.83 0-1.521-.21-2.072-.63-.55-.42-.873-.99-.966-1.708h1.204c.075.364.266.681.574.952.317.261.742.392 1.274.392.495 0 .859-.103 1.092-.308.233-.215.35-.467.35-.756 0-.42-.154-.7-.462-.84-.299-.14-.723-.266-1.274-.378a7.224 7.224 0 0 1-1.12-.322 2.592 2.592 0 0 1-.938-.588c-.252-.261-.378-.602-.378-1.022 0-.607.224-1.101.672-1.484.457-.392 1.073-.588 1.848-.588.737 0 1.34.187 1.806.56.476.364.751.887.826 1.568H51.9c-.047-.355-.2-.63-.462-.826-.252-.205-.593-.308-1.022-.308-.42 0-.747.089-.98.266a.85.85 0 0 0-.336.7c0 .28.145.5.434.658.299.159.7.294 1.204.406.43.093.835.21 1.218.35.392.13.71.331.952.602.252.261.378.644.378 1.148.01.625-.229 1.143-.714 1.554-.476.401-1.125.602-1.946.602Z" fill="#fff"/></svg>