<svg width="92" height="76" fill="none" xmlns="http://www.w3.org/2000/svg"><circle cx="77" cy="15" r="15" fill="#fff"/><path d="M20.427 27.254c-.859 0-1.61-1.012-2.254-3.036-.613-2.024-.92-3.971-.92-5.842 0-.43.475-.905 1.426-1.426.95-.552 2.392-1.043 4.324-1.472 1.932-.43 4.033-.644 6.302-.644 8.801 0 13.202 3.082 13.202 9.246 0 1.717-.368 3.327-1.104 4.83-.736 1.503-1.549 2.714-2.438 3.634-.89.89-1.932 1.717-3.128 2.484-1.38.859-2.699 1.533-3.956 2.024h9.2c.184 0 .383.092.598.276.215.153.445.644.69 1.472.245.797.368 1.81.368 3.036 0 1.196-.077 2.208-.23 3.036-.153.797-.337 1.38-.552 1.748-.46.828-.874 1.273-1.242 1.334l-.23.046H20.335c-1.932 0-2.898-3.02-2.898-9.062 0-.675 1.993-2.53 5.98-5.566a31.352 31.352 0 0 0 4.14-3.634c1.257-1.319 1.886-2.392 1.886-3.22 0-.92-.69-1.38-2.07-1.38s-2.837.353-4.37 1.058c-1.503.705-2.361 1.058-2.576 1.058Zm51.762-3.818c0 3.097-1.227 5.413-3.68 6.946.337.153.766.521 1.288 1.104a11.458 11.458 0 0 1 1.38 1.748c.95 1.503 1.426 3.281 1.426 5.336 0 3.373-1.212 5.857-3.634 7.452-2.423 1.595-5.75 2.392-9.982 2.392-2.086 0-4.064-.169-5.934-.506-1.84-.368-3.25-.767-4.232-1.196-.982-.46-1.472-.874-1.472-1.242 0-1.687.184-3.174.552-4.462.368-1.288.782-2.193 1.242-2.714.46-.552.904-.828 1.334-.828.122 0 .935.276 2.438.828 1.502.552 2.974.828 4.416.828 1.472 0 2.208-.46 2.208-1.38 0-1.257-1.549-1.932-4.646-2.024-1.227-.03-1.902-.061-2.024-.092-.644-.215-.966-1.564-.966-4.048s.322-3.849.966-4.094c.122-.061.797-.092 2.024-.092 3.097-.061 4.646-.69 4.646-1.886 0-.92-.675-1.38-2.024-1.38-1.319 0-2.79.322-4.416.966-1.626.644-2.515.966-2.668.966-.706 0-1.35-1.027-1.932-3.082-.583-2.055-.874-3.511-.874-4.37 0-.797.89-1.61 2.668-2.438 1.962-.89 4.845-1.334 8.648-1.334 8.832 0 13.248 2.867 13.248 8.602Z" fill="#D41443"/><path d="M1.748 72v-5.95H.698v-.994h1.05v-1.204c0-.672.168-1.162.504-1.47.336-.308.826-.462 1.47-.462h.7v1.008h-.518c-.354 0-.606.075-.756.224-.149.14-.224.383-.224.728v1.176h1.708v.994H2.924V72H1.748Zm7.175.168c-.653 0-1.241-.15-1.764-.448a3.299 3.299 0 0 1-1.246-1.26c-.299-.55-.448-1.195-.448-1.932 0-.737.154-1.377.462-1.918.308-.55.723-.975 1.246-1.274a3.569 3.569 0 0 1 1.778-.448c.653 0 1.241.15 1.764.448.523.299.933.723 1.232 1.274.308.541.462 1.18.462 1.918 0 .737-.154 1.381-.462 1.932a3.27 3.27 0 0 1-1.26 1.26 3.491 3.491 0 0 1-1.764.448Zm0-1.008c.401 0 .775-.098 1.12-.294.345-.196.625-.49.84-.882.215-.392.322-.877.322-1.456s-.107-1.064-.322-1.456a2.104 2.104 0 0 0-.826-.882 2.205 2.205 0 0 0-1.106-.294c-.401 0-.775.098-1.12.294-.345.196-.625.49-.84.882-.215.392-.322.877-.322 1.456s.107 1.064.322 1.456c.215.392.49.686.826.882.345.196.714.294 1.106.294Zm8.285 1.008c-.653 0-1.241-.15-1.764-.448a3.3 3.3 0 0 1-1.246-1.26c-.299-.55-.448-1.195-.448-1.932 0-.737.154-1.377.462-1.918.308-.55.723-.975 1.246-1.274a3.569 3.569 0 0 1 1.778-.448c.654 0 1.241.15 1.764.448.523.299.933.723 1.232 1.274.308.541.462 1.18.462 1.918 0 .737-.154 1.381-.462 1.932a3.27 3.27 0 0 1-1.26 1.26 3.49 3.49 0 0 1-1.764.448Zm0-1.008c.402 0 .775-.098 1.12-.294.346-.196.625-.49.84-.882.215-.392.322-.877.322-1.456s-.107-1.064-.322-1.456a2.103 2.103 0 0 0-.826-.882 2.205 2.205 0 0 0-1.106-.294c-.401 0-.774.098-1.12.294-.345.196-.625.49-.84.882-.214.392-.322.877-.322 1.456s.107 1.064.322 1.456c.215.392.49.686.826.882.346.196.714.294 1.106.294Zm8.271 1.008c-.69 0-1.297-.159-1.82-.476a3.306 3.306 0 0 1-1.204-1.302c-.28-.55-.42-1.176-.42-1.876s.145-1.32.434-1.862c.29-.55.69-.98 1.204-1.288.514-.317 1.12-.476 1.82-.476.57 0 1.074.117 1.512.35.439.233.78.56 1.022.98V61.92h1.176V72H28.14l-.112-1.148c-.224.336-.546.64-.966.91-.42.27-.947.406-1.582.406Zm.126-1.022c.467 0 .878-.107 1.232-.322.364-.224.644-.532.84-.924.206-.392.308-.85.308-1.372 0-.523-.102-.98-.308-1.372a2.143 2.143 0 0 0-.84-.91 2.258 2.258 0 0 0-1.232-.336c-.457 0-.868.112-1.232.336a2.265 2.265 0 0 0-.84.91c-.196.392-.294.85-.294 1.372 0 .523.098.98.294 1.372.206.392.486.7.84.924.364.215.775.322 1.232.322ZM37.57 72c-.634 0-1.134-.154-1.498-.462-.364-.308-.546-.863-.546-1.666V66.05h-1.204v-.994h1.204l.154-1.666h1.022v1.666h2.044v.994h-2.044v3.822c0 .439.089.737.266.896.178.15.49.224.938.224h.728V72H37.57Zm2.67 0v-6.944h1.064l.098 1.33c.215-.457.542-.821.98-1.092.44-.27.98-.406 1.624-.406v1.232h-.322c-.41 0-.788.075-1.134.224-.345.14-.62.383-.826.728-.205.345-.308.821-.308 1.428V72H40.24Zm7.62.168c-.821 0-1.474-.247-1.96-.742-.485-.504-.728-1.274-.728-2.31v-4.06h1.176v3.934c0 1.447.593 2.17 1.778 2.17.607 0 1.106-.215 1.498-.644.402-.439.602-1.06.602-1.862v-3.598h1.176V72h-1.064l-.084-1.246a2.406 2.406 0 0 1-.966 1.036c-.42.252-.896.378-1.428.378Zm8.67 0c-.663 0-1.26-.15-1.792-.448a3.402 3.402 0 0 1-1.246-1.274c-.299-.55-.448-1.19-.448-1.918s.15-1.363.448-1.904c.308-.55.723-.975 1.246-1.274a3.51 3.51 0 0 1 1.792-.462c.821 0 1.512.215 2.072.644.57.43.929 1.003 1.078 1.722h-1.204a1.518 1.518 0 0 0-.686-.994c-.364-.243-.789-.364-1.274-.364-.392 0-.76.098-1.106.294-.345.196-.625.49-.84.882-.215.392-.322.877-.322 1.456s.107 1.064.322 1.456c.215.392.495.69.84.896.345.196.714.294 1.106.294.485 0 .91-.117 1.274-.35.364-.243.593-.583.686-1.022h1.204a2.78 2.78 0 0 1-1.064 1.708c-.57.439-1.265.658-2.086.658ZM61.321 72V61.92h1.177v6.062l2.842-2.926h1.441l-3.08 3.136L67.175 72h-1.499l-3.177-3.598V72h-1.176Zm9.305.168c-.83 0-1.521-.21-2.072-.63-.55-.42-.873-.99-.966-1.708h1.204c.075.364.266.681.574.952.317.261.742.392 1.274.392.495 0 .859-.103 1.092-.308.233-.215.35-.467.35-.756 0-.42-.154-.7-.462-.84-.299-.14-.723-.266-1.274-.378a7.224 7.224 0 0 1-1.12-.322 2.592 2.592 0 0 1-.938-.588c-.252-.261-.378-.602-.378-1.022 0-.607.224-1.101.672-1.484.457-.392 1.073-.588 1.848-.588.737 0 1.34.187 1.806.56.476.364.751.887.826 1.568H71.9c-.047-.355-.2-.63-.462-.826-.252-.205-.593-.308-1.022-.308-.42 0-.747.089-.98.266a.85.85 0 0 0-.336.7c0 .28.145.5.434.658.299.159.7.294 1.204.406.43.093.835.21 1.218.35.392.13.71.331.952.602.252.261.378.644.378 1.148.01.625-.229 1.143-.714 1.554-.476.401-1.125.602-1.946.602Z" fill="#fff"/></svg>